# xmcd
# Track frame offsets:
# 150
# 15406
# 32366
# 45030
# 57525
# 74852
# 91685
# 109131
# 125039
# 142391
# 162835
# 176935
# 193351
# 209608
# 227664
# 240085
#
# Disc length: 3379 seconds
# Revision: 0
# Processed by: cddbd v1.4PL0 Copyright (c) Steve Scherf et al.
# Submitted via: VisiTrax 2.9.5.181 - For more info visit www.synapsa.com
#
DISCID=e40d3110
DTITLE=Joe Diffie - 16 Biggest Hits
DYEAR=2002
DGENRE=
TTITLE0=Home
TTITLE1=If You Want Me To
TTITLE2=If The Devil Danced (In Empty Pockets)
TTITLE3=New Way (To Light Up An Old Flame)
TTITLE4=Is It Cold In Here
TTITLE5=Ships That Don't Come In
TTITLE6=Honky Tonk Attitude
TTITLE7=Prop Me Upside The Jukebox (If I Die)
TTITLE8=John Deere Green
TTITLE9=Thrid Rock From The Sun
TTITLE10=Pick Up Man
TTITLE11=So Help Me Girl
TTITLE12=Bigger Than The Beatles
TTITLE13=Texas Size Heartache
TTITLE14=A Night To Remember
TTITLE15=It's Always Something
EXTD=
EXTT0=
EXTT1=
EXTT2=
EXTT3=
EXTT4=
EXTT5=
EXTT6=
EXTT7=
EXTT8=
EXTT9=
EXTT10=
EXTT11=
EXTT12=
EXTT13=
EXTT14=
EXTT15=
PLAYORDER=
